<?xml version="1.0" encoding="iso-8859-1"?>
<!-- Uploaded to: SVG Repo, www.svgrepo.com, Generator: SVG Repo Mixer Tools -->
<svg fill="#000000" height="800px" width="800px" version="1.1" id="Layer_1" xmlns="http://www.w3.org/2000/svg" xmlns:xlink="http://www.w3.org/1999/xlink" 
	 viewBox="0 0 511.999 511.999" xml:space="preserve">
<g>
	<g>
		<path d="M490.667,21.333H21.333C9.536,21.333,0,30.891,0,42.667v426.667c0,11.776,9.536,21.333,21.333,21.333h375.189
			l-79.509-79.488c-18.155,9.877-38.933,15.488-61.013,15.488c-70.592,0-128-57.408-128-128v-192
			c0-11.776,9.536-21.333,21.333-21.333s21.333,9.557,21.333,21.333v96.853c17.643-15.829,39.637-26.816,64-30.933v-65.92
			c0-11.776,9.536-21.333,21.333-21.333s21.333,9.557,21.333,21.333v65.92c7.339,1.237,14.464,3.115,21.333,5.547v-71.467
			c0-11.776,9.536-21.333,21.333-21.333s21.333,9.557,21.333,21.333v96.853C367.445,226.987,384,260.885,384,298.667
			c0,33.045-12.693,63.104-33.323,85.845l91.093,91.051c4.181,4.181,6.251,9.643,6.251,15.104h42.645
			c11.797,0,21.333-9.557,21.333-21.333V42.667C512,30.891,502.464,21.333,490.667,21.333z M64.726,106.581
			c0.043-11.755,9.579-21.248,21.333-21.248h0.085c11.797,0.043,21.291,9.643,21.248,21.419l-0.725,170.667
			c-0.043,11.755-9.579,21.248-21.333,21.248h-0.085c-11.797-0.043-21.291-9.643-21.248-21.419L64.726,106.581z M106.667,384.362
			c-0.213,11.648-9.707,20.971-21.333,20.971H84.95c-11.755-0.213-21.163-9.92-20.949-21.696l0.725-42.667
			C64.939,329.323,74.432,320,86.059,320h0.363c11.797,0.213,21.184,9.92,20.971,21.696L106.667,384.362z M448,384
			c0,11.776-9.536,21.333-21.333,21.333s-21.333-9.557-21.333-21.333V106.667c0-11.776,9.536-21.333,21.333-21.333
			S448,94.891,448,106.667V384z"/>
	</g>
</g>
<g>
	<g>
		<path d="M256,213.333c-47.061,0-85.333,38.272-85.333,85.333C170.667,345.727,208.939,384,256,384
			c47.061,0,85.333-38.272,85.333-85.333S303.061,213.333,256,213.333z"/>
	</g>
</g>
</svg>