<?xml version="1.0" encoding="UTF-8"?>
<!DOCTYPE svg PUBLIC "-//W3C//DTD SVG 1.1//EN" "http://www.w3.org/Graphics/SVG/1.1/DTD/svg11.dtd">
<!-- Creator: CorelDRAW -->
<svg xmlns="http://www.w3.org/2000/svg" xml:space="preserve" width="780px" height="614px" version="1.1" style="shape-rendering:geometricPrecision; text-rendering:geometricPrecision; image-rendering:optimizeQuality; fill-rule:evenodd; clip-rule:evenodd"
viewBox="0 0 980.97 772.66"
 xmlns:xlink="http://www.w3.org/1999/xlink"
 xmlns:xodm="http://www.corel.com/coreldraw/odm/2003">
 <defs>
  <style type="text/css">
   <![CDATA[
    .fil0 {fill:#FEFEFE;fill-rule:nonzero}
   ]]>
  </style>
 </defs>
 <g id="Capa_x0020_1">
  <metadata id="CorelCorpID_0Corel-Layer"/>
  <g id="_1608838119712">
   <g>
    <path class="fil0" d="M940.1 0l-899.23 0c-22.6,0 -40.87,15.74 -40.87,35.12l0 702.42c0,19.39 18.27,35.12 40.87,35.12l718.85 0 -152.34 -130.86c-34.78,16.26 -74.59,25.5 -116.9,25.5 -135.25,0 -245.24,-94.51 -245.24,-210.73l0 -316.08c0,-19.39 18.27,-35.13 40.88,-35.13 22.6,0 40.87,15.74 40.87,35.13l0 159.44c33.8,-26.06 75.94,-44.14 122.62,-50.92l0 -108.52c0,-19.39 18.27,-35.13 40.87,-35.13 22.6,0 40.88,15.74 40.88,35.13l0 108.52c14.06,2.03 27.71,5.13 40.87,9.13l0 -117.65c0,-19.39 18.27,-35.13 40.87,-35.13 22.6,0 40.87,15.74 40.87,35.13l0 159.44c50.04,38.64 81.76,94.44 81.76,156.64 0,54.41 -24.32,103.89 -63.85,141.33l174.53 149.9c8.01,6.88 11.98,15.87 11.98,24.86l81.7 0c22.61,0 40.88,-15.73 40.88,-35.12l0 -702.42c0,-19.38 -18.27,-35.12 -40.87,-35.12zm-816.09 140.34c0.08,-19.35 18.36,-34.98 40.88,-34.98l0.16 0c22.6,0.07 40.79,15.88 40.71,35.26l-1.39 280.97c-0.08,19.36 -18.35,34.98 -40.87,34.98l-0.17 0c-22.6,-0.07 -40.79,-15.87 -40.71,-35.26l1.39 -280.97zm80.36 457.31c-0.41,19.18 -18.6,34.53 -40.87,34.53l-0.74 0c-22.52,-0.35 -40.55,-16.33 -40.14,-35.72l1.39 -70.24c0.41,-19.18 18.6,-34.53 40.88,-34.53l0.69 0c22.6,0.35 40.59,16.33 40.18,35.72l-1.39 70.24zm653.98 -0.59c0,19.38 -18.27,35.12 -40.87,35.12 -22.61,0 -40.88,-15.74 -40.88,-35.12l0 -456.57c0,-19.39 18.27,-35.13 40.87,-35.13 22.61,0 40.88,15.74 40.88,35.13l0 456.57z"/>
   </g>
  </g>
  <g id="_1608838120624">
   <g>
    <path class="fil0" d="M490.48 316.09c-90.16,0 -163.49,63 -163.49,140.48 0,77.48 73.33,140.49 163.49,140.49 90.17,0 163.5,-63.01 163.5,-140.49 0,-77.47 -73.33,-140.48 -163.5,-140.48z"/>
   </g>
  </g>
 </g>
</svg>
